<svg xmlns="http://www.w3.org/2000/svg" viewBox="0 0 64 64" fill="none">
  <defs>
    <linearGradient id="switchGradient" x1="0" y1="0" x2="1" y2="1">
      <stop offset="0%" stop-color="#0F4B8B" />
      <stop offset="100%" stop-color="#3B82F6" />
    </linearGradient>
  </defs>
  <rect x="6" y="14" width="52" height="36" rx="8" fill="#0F172A" />
  <rect x="8" y="16" width="48" height="32" rx="6" fill="url(#switchGradient)" opacity="0.15" />
  <rect x="12" y="20" width="40" height="20" rx="4" fill="#E2E8F0" />
  <rect x="12" y="44" width="40" height="4" rx="2" fill="#CBD5E1" />
  <rect x="16" y="24" width="8" height="4" rx="1" fill="#0F172A" />
  <rect x="28" y="24" width="8" height="4" rx="1" fill="#0F172A" />
  <rect x="40" y="24" width="8" height="4" rx="1" fill="#0F172A" />
  <rect x="16" y="30" width="8" height="4" rx="1" fill="#0F172A" />
  <rect x="28" y="30" width="8" height="4" rx="1" fill="#0F172A" />
  <rect x="40" y="30" width="8" height="4" rx="1" fill="#0F172A" />
  <path d="M18 16.5C18 14.8431 19.3431 13.5 21 13.5H43C44.6569 13.5 46 14.8431 46 16.5V18.5H18V16.5Z" fill="#0F172A" />
  <path d="M18 18.5H46V20.5H18V18.5Z" fill="#0F172A" />
  <path d="M22 13.5V10h2v3.5H22Z" fill="#0F172A" />
  <path d="M26 13.5V8h2v5.5H26Z" fill="#0F172A" />
  <path d="M30 13.5V10h2v3.5H30Z" fill="#0F172A" />
  <path d="M34 13.5V8h2v5.5H34Z" fill="#0F172A" />
  <path d="M38 13.5V10h2v3.5H38Z" fill="#0F172A" />
  <path d="M16 40.5C16 39.3954 16.8954 38.5 18 38.5H22C23.1046 38.5 24 39.3954 24 40.5C24 41.6046 23.1046 42.5 22 42.5H18C16.8954 42.5 16 41.6046 16 40.5Z" fill="#0F172A" />
  <path d="M26 40.5C26 39.3954 26.8954 38.5 28 38.5H32C33.1046 38.5 34 39.3954 34 40.5C34 41.6046 33.1046 42.5 32 42.5H28C26.8954 42.5 26 41.6046 26 40.5Z" fill="#0F172A" />
  <path d="M36 40.5C36 39.3954 36.8954 38.5 38 38.5H42C43.1046 38.5 44 39.3954 44 40.5C44 41.6046 43.1046 42.5 42 42.5H38C36.8954 42.5 36 41.6046 36 40.5Z" fill="#0F172A" />
  <path d="M20 48.5H44" stroke="#0F172A" stroke-width="2" stroke-linecap="round" />
  <path d="M15 24.5H49" stroke="#CBD5E1" stroke-width="2" stroke-linecap="round" />
  <path d="M15 29.5H49" stroke="#CBD5E1" stroke-width="2" stroke-linecap="round" />
</svg>
